<?xml version="1.0" standalone="no"?>
<!DOCTYPE svg PUBLIC "-//W3C//DTD SVG 20010904//EN"
 "http://www.w3.org/TR/2001/REC-SVG-20010904/DTD/svg10.dtd">
<svg version="1.0" xmlns="http://www.w3.org/2000/svg"
 width="100.000000pt" height="43.000000pt" viewBox="0 0 100.000000 43.000000"
 preserveAspectRatio="xMidYMid meet">
<metadata>
Created by potrace 1.10, written by Peter Selinger 2001-2011
</metadata>
<g transform="translate(0.000000,43.000000) scale(0.050000,-0.050000)"
fill="#000000" stroke="none">
<path d="M120 650 l0 -170 180 0 180 0 0 170 0 170 -180 0 -180 0 0 -170z
m340 0 l0 -150 -160 0 -160 0 0 150 0 150 160 0 160 0 0 -150z"/>
<path d="M303 706 c-2 -35 -18 -45 -78 -51 l-75 -8 74 -4 c64 -3 74 -10 82
-58 l8 -55 3 54 c3 45 14 55 68 62 l65 8 -64 3 c-48 2 -65 14 -72 48 -9 45 -9
45 -11 1z"/>
</g>
</svg>
