<svg id="Layer_1" data-name="Layer 1" xmlns="http://www.w3.org/2000/svg" xmlns:xlink="http://www.w3.org/1999/xlink" viewBox="0 0 512 512"><defs><radialGradient id="GradientFill_1" cx="275.97" cy="232.1" r="286.17" gradientUnits="userSpaceOnUse"><stop offset="0" stop-color="#fff"/><stop offset="0.51" stop-color="#fbfbfb"/><stop offset="1" stop-color="#d0d2d3"/></radialGradient></defs><title>users</title><path d="M282.65,100.16,17.92,205.7C3.77,211.59-3.89,228.1,2,242.84L94.57,455.1c5.89,14.15,22.4,21.82,37.14,15.91L364.6,377.86c27.71,18.86,51.29,30.08,87.85,27.71-25.35-10-39.5-21.22-57.19-40.09l.59-.59c14.73-5.3,22.4-22.4,15.91-36.55L319.2,115.49C313.31,101.34,296.8,94.27,282.65,100.16Z" fill="#231f20" fill-rule="evenodd"/><path d="M283.24,107.24,27.94,201.57C13.79,206.88,6.13,222.8,12,236.36L94.57,442.13c5.89,14.15,21.22,21.22,35.37,15.91l225.22-83.13c25.94,18.87,48.35,30.66,83.13,28.89-23.59-10-37.15-21.22-53.66-39.5l.59-.59c14.15-5.31,21.81-21.22,15.92-34.79L318.61,123.16C312.72,109.59,297.39,101.93,283.24,107.24Z" fill="#839ca9" fill-rule="evenodd"/><path d="M390,39.43,71.57,99.57c-17.69,2.95-30.07,20-25.94,37.73l56,257.07c4.13,17.69,20.64,29.48,37.73,25.94l281.24-52.48c26.53,26.53,50.12,44.81,91.39,50.7-25.94-17.1-39.5-33-55.42-57.78h1.18c17.68-3.53,29.48-20.64,25.94-37.74l-56-257.65C423.55,48.28,407,36.49,390,39.43Z" fill="#231f20" fill-rule="evenodd"/><path d="M389.36,48.28l-306,48.94c-17.1,2.36-28.89,18.86-25.94,35.37l47.76,247.63c2.95,16.51,18.28,28.3,35.37,25.35l270-43c24.18,26.53,46.58,44.22,86.09,50.71-24.17-16.51-37.14-31.84-51.3-56.6h1.18c16.51-3,28.88-18.86,25.35-35.37L424.74,73.63C421.2,57.12,405.87,45.33,389.36,48.28Z" fill-rule="evenodd" fill="url(#GradientFill_1)"/><path d="M159.42,319.49c5.31-21.22,20.64-37.73,41.86-46.57v-.59c1.18-5.9,0-11.79-1.77-17.69-11.2-7.67-21.82-20-25.94-33h0c-17.1-25.94-7.66-52.47,11.79-63.08,8.25-4.13,15.92-8.84,23.58-9.43,41.27-5.9,74.88,35.37,51.88,67.8-1.77,10.61-6.49,21.23-12.38,30.07.59,6.49,1.18,12.38,4.13,17.69,8.25.59,17.1,1.76,25.35,4.71,11.2,4.13,27.71,17.69,33.6,28.3,10,18.28,7.66,25.35-4.72,32.43-18.86,11.2-45.39,17.1-66.62,20-24.17,2.94-52.47,4.72-69.57.59C156.48,344.84,156.48,333.05,159.42,319.49Z" fill="#231f20" fill-rule="evenodd"/><path d="M260.24,236.36c4.13-18.28,17.1-32.43,34.79-39.5a.58.58,0,0,0,.59-.59,32.58,32.58,0,0,0-1.78-14.74c-9.43-7.08-18.27-17.1-21.82-28.3v.59c-14.15-22.4-6.48-44.22,10-53.65,6.49-3.54,13.56-7.07,20-8.26,34.79-4.71,63.68,30.07,44.22,57.78A69.7,69.7,0,0,1,335.13,175c.58,5.31,1.18,10,4.13,14.74,7.07,0,14.15,1.77,21.22,4.13,9.44,3.54,23.58,14.74,28.89,24.17,8.25,15.33,5.9,21.22-4.13,27.12-16.51,9.43-38.32,14.15-56.6,16.51-20.63,2.95-44.21,4.13-59,.59C257.3,257.58,257.88,247.56,260.24,236.36Z" fill="#231f20" fill-rule="evenodd"/></svg>